<?xml version="1.0" encoding="UTF-8" standalone="no"?>
<!DOCTYPE svg PUBLIC "-//W3C//DTD SVG 1.1//EN" "http://www.w3.org/Graphics/SVG/1.1/DTD/svg11.dtd">
<svg version="1.1" xmlns="http://www.w3.org/2000/svg" xmlns:xlink="http://www.w3.org/1999/xlink" preserveAspectRatio="xMidYMid meet" viewBox="2.9000000000000004 73.10000000000007 67.70000000000006 80.69999999999995"><defs><path d="M63 73.8L64.03 74.27L64.92 74.79L65.69 75.32L66.33 75.84L66.86 76.32L67.3 76.74L67.64 77.05L67.9 77.25L68.62 78.27L69.19 79.31L69.62 80.33L69.94 81.33L70.16 82.28L70.31 83.14L70.41 83.91L70.47 84.56L70.53 85.06L70.6 85.4L70.58 86.12L70.52 86.79L70.43 87.4L70.33 87.95L70.21 88.44L70.09 88.87L69.97 89.24L69.87 89.54L69.79 89.78L69.75 89.95L69.58 90.36L69.42 90.78L69.25 91.19L69.09 91.61L68.94 92.04L68.78 92.46L68.63 92.89L68.49 93.33L68.34 93.76L68.2 94.2L49.1 129.53L47.78 131.97L46.2 134.9L45.46 136.74L44.81 138.35L44.24 139.77L43.74 140.99L43.31 142.03L42.94 142.91L42.64 143.64L42.39 144.23L42.2 144.69L42.05 145.05L41.61 146.08L41.22 146.97L40.87 147.74L40.57 148.4L40.31 148.96L40.09 149.43L39.91 149.81L39.76 150.12L39.64 150.36L39.55 150.55L39.28 151.06L39.06 151.49L38.86 151.84L38.7 152.12L38.57 152.35L38.46 152.53L38.37 152.68L38.3 152.79L38.24 152.87L38.2 152.95L38.09 153.1L37.99 153.22L37.91 153.32L37.83 153.4L37.77 153.46L37.72 153.5L37.68 153.53L37.65 153.56L37.62 153.58L37.6 153.6L37.6 153.63L37.59 153.65L37.58 153.66L37.57 153.68L37.55 153.68L37.54 153.69L37.53 153.69L37.51 153.7L37.51 153.7L37.5 153.7L37.47 153.73L37.43 153.75L37.4 153.76L37.36 153.78L37.32 153.78L37.29 153.79L37.26 153.79L37.23 153.8L37.21 153.8L37.2 153.8L37.13 153.19L37 152.56L36.81 151.94L36.59 151.34L36.35 150.76L36.11 150.23L35.89 149.76L35.69 149.36L35.54 149.05L35.45 148.85L34.93 147.96L34.39 147.08L33.83 146.22L33.27 145.39L32.73 144.62L32.22 143.92L31.77 143.3L31.39 142.78L31.09 142.37L30.9 142.1L30.02 140.97L29.14 139.85L28.28 138.78L27.45 137.76L26.67 136.81L25.95 135.96L25.32 135.2L24.79 134.57L24.38 134.08L24.1 133.75L22.94 132.4L21.8 131.07L20.7 129.8L19.67 128.6L18.71 127.49L17.84 126.48L17.07 125.6L16.44 124.87L15.94 124.29L15.6 123.9L14.74 122.97L13.94 122.04L13.22 121.14L12.57 120.28L12 119.48L11.5 118.74L11.07 118.1L10.72 117.56L10.45 117.14L10.25 116.85L9.58 115.68L8.97 114.55L8.43 113.48L7.94 112.48L7.52 111.55L7.15 110.72L6.85 110L6.59 109.4L6.4 108.92L6.25 108.6L5.79 107.33L5.38 106.12L5.03 104.97L4.73 103.9L4.48 102.92L4.26 102.04L4.09 101.28L3.95 100.64L3.84 100.14L3.75 99.8L3.59 98.9L3.44 98L3.32 97.11L3.21 96.22L3.11 95.33L3.04 94.44L2.98 93.55L2.93 92.66L2.91 91.78L2.9 90.9L5.85 83.1L6.76 82.43L7.71 81.9L8.68 81.5L9.63 81.21L10.54 81.01L11.39 80.87L12.14 80.78L12.78 80.72L13.27 80.66L13.6 80.6L14.56 80.63L15.47 80.7L16.32 80.82L17.09 80.96L17.8 81.11L18.42 81.27L18.96 81.41L19.41 81.54L19.75 81.64L20 81.7L20.9 82.04L21.73 82.41L22.49 82.78L23.18 83.14L23.8 83.5L24.34 83.83L24.8 84.13L25.19 84.38L25.49 84.57L25.7 84.7L26.45 85.28L27.13 85.86L27.75 86.44L28.31 87.01L28.8 87.54L29.23 88.03L29.59 88.46L29.89 88.83L30.13 89.11L30.3 89.3L30.86 90.1L31.36 90.88L31.79 91.63L32.17 92.34L32.48 93L32.75 93.59L32.97 94.1L33.15 94.53L33.29 94.87L33.4 95.1L33.43 95.17L33.46 95.26L33.48 95.36L33.51 95.46L33.53 95.57L33.55 95.67L33.57 95.77L33.58 95.85L33.59 95.91L33.6 95.95L33.63 96.14L33.67 96.32L33.7 96.49L33.74 96.65L33.78 96.8L33.81 96.92L33.84 97.03L33.87 97.13L33.89 97.2L33.9 97.25L33.96 97.44L34.02 97.62L34.09 97.78L34.15 97.93L34.21 98.07L34.26 98.19L34.31 98.3L34.35 98.38L34.38 98.45L34.4 98.5L34.49 98.67L34.59 98.81L34.69 98.92L34.79 99.02L34.88 99.1L34.97 99.16L35.05 99.21L35.11 99.24L35.17 99.27L35.2 99.3L35.7 97.78L36.23 96.35L36.76 95.02L37.3 93.79L37.81 92.68L38.29 91.69L38.72 90.84L39.08 90.14L39.37 89.59L39.55 89.2L40.37 87.79L41.18 86.51L41.97 85.35L42.71 84.32L43.4 83.41L44.03 82.62L44.58 81.95L45.05 81.4L45.41 80.96L45.65 80.65L46.65 79.62L47.62 78.71L48.55 77.91L49.42 77.21L50.24 76.62L50.97 76.12L51.61 75.71L52.15 75.37L52.56 75.1L52.85 74.9L53.98 74.34L55.05 73.92L56.06 73.62L56.99 73.41L57.83 73.28L58.59 73.21L59.24 73.17L59.78 73.15L60.2 73.14L60.5 73.1L61.83 73.4L63 73.8ZM37.31 142.27L37.33 142.37L37.36 142.44L37.4 142.49L37.44 142.53L37.48 142.55L37.52 142.57L37.56 142.58L37.58 142.59L37.6 142.6L37.71 142.54L37.79 142.48L37.86 142.42L37.9 142.37L37.94 142.32L37.96 142.27L37.97 142.23L37.98 142.19L37.99 142.17L38 142.15L38 142.1L37.98 142.05L37.96 142L37.94 141.96L37.9 141.91L37.86 141.87L37.8 141.82L37.74 141.78L37.68 141.74L37.6 141.7L37.3 142.15L37.31 142.27ZM38.64 140.09L38.76 139.99L38.86 139.9L38.94 139.82L39.01 139.75L39.07 139.69L39.11 139.64L39.15 139.6L39.18 139.57L39.2 139.55L39.24 139.5L39.27 139.43L39.3 139.36L39.33 139.28L39.35 139.19L39.37 139.09L39.38 138.98L39.39 138.86L39.4 138.74L39.4 138.6L39.4 138.2L38.5 140.2L38.64 140.09ZM40.4 135.1L40.28 135.24L40.2 135.36L40.16 135.46L40.15 135.54L40.17 135.61L40.2 135.67L40.23 135.71L40.27 135.75L40.29 135.78L40.3 135.8L40.45 135.86L40.59 135.89L40.71 135.89L40.81 135.85L40.9 135.78L40.97 135.67L41.03 135.53L41.07 135.35L41.09 135.14L41.1 134.9L40.61 135.04L40.4 135.1ZM52.82 103.45L52.01 104.23L51.26 105L50.57 105.73L49.96 106.4L49.43 107L48.99 107.5L48.64 107.89L48.4 108.15L47.49 109.26L46.64 110.33L45.85 111.35L45.12 112.31L44.46 113.19L43.88 113.98L43.37 114.67L42.96 115.24L42.63 115.69L42.4 116L41.56 117.21L40.78 118.35L40.06 119.43L39.4 120.44L38.82 121.35L38.3 122.17L37.86 122.88L37.49 123.47L37.2 123.93L37 124.25L36.28 125.44L35.62 126.54L35.03 127.53L34.5 128.42L34.03 129.21L33.62 129.89L33.27 130.47L32.99 130.95L32.76 131.33L32.6 131.6L32.49 131.8L32.39 131.97L32.3 132.13L32.22 132.26L32.15 132.37L32.09 132.47L32.04 132.55L32 132.61L31.97 132.66L31.95 132.7L31.9 132.78L31.86 132.86L31.82 132.95L31.79 133.04L31.76 133.13L31.74 133.22L31.72 133.31L31.71 133.4L31.7 133.5L31.7 133.6L31.7 134L31.96 134.33L32.07 134.47L32.44 134.93L32.5 135L32.67 135.17L32.82 135.31L32.94 135.42L33.05 135.52L33.14 135.6L33.22 135.66L33.28 135.71L33.33 135.74L33.37 135.77L33.4 135.8L33.53 135.6L33.68 135.38L33.83 135.13L33.99 134.88L34.15 134.63L34.3 134.39L34.44 134.17L34.55 133.98L34.64 133.84L34.7 133.75L34.97 133.32L35.22 132.91L35.46 132.51L35.69 132.14L35.89 131.8L36.08 131.49L36.24 131.22L36.37 131L36.48 130.82L36.55 130.7L36.83 130.24L37.08 129.8L37.31 129.4L37.53 129.04L37.72 128.71L37.88 128.42L38.02 128.18L38.14 127.97L38.23 127.81L38.3 127.7L38.52 127.31L38.71 126.97L38.87 126.69L39 126.45L39.11 126.25L39.2 126.09L39.27 125.96L39.32 125.85L39.36 125.77L39.4 125.7L39.43 125.63L39.46 125.55L39.48 125.45L39.51 125.36L39.53 125.26L39.55 125.16L39.57 125.07L39.58 124.99L39.59 124.94L39.6 124.9L39.63 124.72L39.66 124.55L39.68 124.38L39.71 124.22L39.73 124.07L39.75 123.94L39.77 123.82L39.78 123.73L39.79 123.65L39.8 123.6L39.83 123.4L39.86 123.21L39.89 123.04L39.92 122.88L39.95 122.74L39.98 122.61L40 122.51L40.02 122.42L40.04 122.35L40.05 122.3L40.09 122.13L40.13 121.99L40.17 121.88L40.2 121.78L40.22 121.71L40.24 121.64L40.26 121.59L40.28 121.56L40.29 121.53L40.3 121.5L40.78 120.72L41.26 120L41.73 119.33L42.19 118.73L42.61 118.2L43 117.73L43.34 117.33L43.63 117L43.85 116.74L44 116.55L44.62 115.89L45.2 115.26L45.74 114.67L46.25 114.12L46.71 113.63L47.11 113.18L47.47 112.8L47.76 112.47L47.99 112.22L48.15 112.05L48.74 111.38L49.3 110.74L49.8 110.13L50.26 109.56L50.68 109.03L51.04 108.56L51.35 108.15L51.61 107.8L51.81 107.54L51.95 107.35L52.44 106.62L52.87 105.89L53.24 105.2L53.56 104.53L53.83 103.91L54.06 103.35L54.24 102.85L54.39 102.44L54.51 102.12L54.6 101.9L53.69 102.67L52.82 103.45ZM29.07 130.06L28.87 130.28L28.84 130.31L28.8 130.35L28.81 130.49L28.85 130.59L28.9 130.66L28.96 130.7L29.03 130.72L29.1 130.72L29.17 130.71L29.23 130.7L29.27 130.7L29.3 130.7L29.38 130.69L29.44 130.67L29.49 130.63L29.53 130.59L29.55 130.54L29.57 130.49L29.58 130.44L29.59 130.4L29.59 130.37L29.6 130.35L29.6 130.28L29.59 130.22L29.57 130.15L29.55 130.09L29.53 130.04L29.49 129.98L29.45 129.93L29.41 129.89L29.36 129.84L29.3 129.8L29.14 129.98L29.07 130.06ZM39.89 106.49L39.65 106.74L39.41 107.01L39.17 107.28L38.95 107.54L38.74 107.79L38.57 107.99L38.44 108.15L38.35 108.25L37.95 108.75L37.55 109.24L37.17 109.73L36.81 110.19L36.48 110.63L36.18 111.02L35.91 111.37L35.69 111.67L35.52 111.9L35.4 112.05L34.93 112.69L34.47 113.31L34.03 113.91L33.63 114.48L33.25 115.01L32.91 115.48L32.62 115.9L32.37 116.24L32.18 116.51L32.05 116.7L31.55 117.43L31.08 118.1L30.66 118.72L30.28 119.28L29.94 119.79L29.64 120.23L29.39 120.61L29.18 120.93L29.02 121.17L28.9 121.35L28.5 121.97L28.15 122.52L27.83 123.03L27.55 123.47L27.31 123.87L27.11 124.21L26.93 124.49L26.79 124.73L26.68 124.91L26.6 125.05L26.43 125.35L26.28 125.62L26.14 125.88L26.02 126.11L25.93 126.31L25.84 126.5L25.78 126.66L25.74 126.79L25.71 126.91L25.7 127L26.6 128.1L27.38 127.66L28.09 127.18L28.75 126.68L29.33 126.19L29.86 125.7L30.31 125.25L30.7 124.84L31.02 124.49L31.27 124.22L31.45 124.05L32.07 123.26L32.64 122.49L33.16 121.75L33.62 121.05L34.04 120.4L34.4 119.81L34.7 119.29L34.96 118.86L35.16 118.53L35.3 118.3L35.79 117.39L36.23 116.51L36.63 115.68L36.99 114.91L37.3 114.2L37.57 113.57L37.8 113.02L37.99 112.56L38.14 112.2L38.25 111.95L38.61 111.01L38.92 110.15L39.21 109.36L39.45 108.66L39.67 108.03L39.85 107.48L40 107.01L40.13 106.62L40.23 106.32L40.3 106.1L40.1 106.28L39.89 106.49ZM51.18 117.39L50.8 117.81L50.46 118.2L50.17 118.53L49.92 118.82L49.71 119.07L49.54 119.27L49.4 119.43L49.3 119.55L48.98 119.94L48.69 120.31L48.43 120.65L48.19 120.96L47.99 121.24L47.8 121.48L47.65 121.69L47.52 121.87L47.42 122L47.35 122.1L47.1 122.45L46.86 122.79L46.64 123.11L46.43 123.41L46.25 123.68L46.08 123.93L45.93 124.14L45.81 124.32L45.72 124.45L45.65 124.55L45.48 124.8L45.3 125.06L45.11 125.33L44.91 125.61L44.71 125.89L44.5 126.18L44.29 126.47L44.07 126.77L43.84 127.08L43.6 127.4L44.4 128.1L44.53 127.93L44.69 127.73L44.85 127.51L45.03 127.27L45.2 127.03L45.36 126.81L45.51 126.6L45.64 126.42L45.74 126.29L45.8 126.2L46.09 125.78L46.38 125.37L46.65 124.98L46.89 124.61L47.12 124.26L47.33 123.95L47.51 123.68L47.65 123.45L47.77 123.27L47.85 123.15L48.16 122.67L48.45 122.22L48.72 121.81L48.97 121.44L49.19 121.1L49.39 120.8L49.57 120.54L49.71 120.33L49.82 120.17L49.9 120.05L50.18 119.65L50.42 119.3L50.62 119.01L50.78 118.76L50.92 118.56L51.03 118.39L51.12 118.26L51.2 118.15L51.25 118.07L51.3 118L51.31 117.93L51.33 117.85L51.36 117.75L51.4 117.66L51.44 117.56L51.48 117.46L51.52 117.37L51.56 117.29L51.58 117.24L51.6 117.2L51.69 117.03L51.76 116.89L51.83 116.78L51.89 116.68L51.94 116.61L51.99 116.54L52.03 116.49L52.06 116.46L52.08 116.43L52.1 116.4L51.62 116.92L51.18 117.39ZM22.9 123.9L23.18 123.87L23.44 123.8L23.66 123.69L23.85 123.56L24.02 123.41L24.16 123.26L24.27 123.12L24.37 123L24.44 122.9L24.5 122.85L24.61 122.64L24.72 122.44L24.81 122.24L24.88 122.05L24.95 121.86L25 121.68L25.05 121.5L25.08 121.33L25.09 121.16L25.1 121L25.1 120.6L22.4 123.9L22.9 123.9ZM27.3 106.2L26.82 106.85L26.36 107.49L25.93 108.11L25.54 108.69L25.19 109.22L24.89 109.69L24.64 110.09L24.44 110.39L24.3 110.6L23.78 111.45L23.3 112.26L22.86 113.01L22.46 113.71L22.1 114.35L21.79 114.91L21.52 115.4L21.3 115.81L21.12 116.13L21 116.35L20.71 116.91L20.44 117.43L20.18 117.93L19.94 118.4L19.73 118.84L19.52 119.25L19.34 119.63L19.18 119.98L19.03 120.31L18.9 120.6L19.6 120.6L19.79 120.57L19.99 120.49L20.2 120.36L20.41 120.21L20.61 120.05L20.8 119.87L20.97 119.71L21.12 119.57L21.23 119.46L21.3 119.4L21.63 119.03L21.94 118.66L22.24 118.28L22.52 117.91L22.78 117.56L23.01 117.24L23.21 116.95L23.38 116.71L23.51 116.52L23.6 116.4L23.95 115.86L24.29 115.34L24.6 114.83L24.89 114.35L25.16 113.9L25.4 113.49L25.6 113.14L25.77 112.84L25.91 112.61L26 112.45L26.35 111.82L26.67 111.24L26.96 110.69L27.23 110.2L27.47 109.75L27.68 109.35L27.85 109.01L28 108.73L28.12 108.51L28.2 108.35L28.48 107.79L28.74 107.29L28.96 106.84L29.15 106.44L29.32 106.09L29.46 105.79L29.57 105.54L29.67 105.33L29.74 105.17L29.8 105.05L29.91 104.79L30.02 104.55L30.11 104.33L30.18 104.14L30.25 103.96L30.3 103.81L30.35 103.67L30.38 103.56L30.39 103.47L30.4 103.4L27.8 105.55L27.3 106.2ZM26.92 116.8L26.63 117L26.51 117.07L26.34 117.19L26.25 117.25L26.15 117.34L26.05 117.44L25.97 117.54L25.9 117.65L25.84 117.76L25.79 117.88L25.75 118L25.72 118.13L25.71 118.26L25.7 118.4L25.7 118.8L25.9 118.7L26.08 118.59L26.24 118.47L26.37 118.35L26.49 118.23L26.6 118.11L26.68 118L26.75 117.91L26.81 117.84L26.85 117.8L26.94 117.66L27.02 117.52L27.1 117.38L27.17 117.24L27.24 117.1L27.3 116.96L27.36 116.82L27.41 116.68L27.46 116.54L27.5 116.4L27.29 116.55L26.92 116.8ZM16.49 112.99L16.47 113.12L16.43 113.28L16.39 113.47L16.34 113.67L16.29 113.86L16.24 114.05L16.2 114.21L16.17 114.33L16.15 114.4L16.08 114.65L16.02 114.9L15.95 115.13L15.89 115.34L15.84 115.55L15.78 115.74L15.73 115.93L15.69 116.1L15.64 116.25L15.6 116.4L15.6 117.5L15.66 117.5L15.71 117.49L15.77 117.48L15.82 117.47L15.86 117.45L15.9 117.44L15.93 117.43L15.96 117.41L15.98 117.41L16 117.4L16.06 117.4L16.11 117.4L16.15 117.39L16.18 117.38L16.21 117.38L16.24 117.37L16.26 117.36L16.28 117.36L16.29 117.35L16.3 117.35L16.33 117.34L16.36 117.33L16.38 117.32L16.41 117.31L16.43 117.31L16.45 117.31L16.47 117.3L16.48 117.3L16.49 117.3L16.5 117.3L16.99 116.92L17.45 116.52L17.88 116.1L18.27 115.68L18.62 115.28L18.92 114.9L19.19 114.56L19.41 114.27L19.58 114.05L19.7 113.9L20.13 113.25L20.53 112.62L20.88 112.02L21.2 111.46L21.49 110.95L21.73 110.48L21.94 110.08L22.12 109.74L22.25 109.48L22.35 109.3L22.68 108.6L22.98 107.94L23.25 107.33L23.49 106.76L23.71 106.25L23.89 105.8L24.05 105.41L24.18 105.08L24.28 104.83L24.35 104.65L24.59 104.01L24.8 103.44L24.99 102.94L25.15 102.5L25.29 102.12L25.41 101.79L25.51 101.52L25.59 101.3L25.65 101.13L25.7 101L25.77 100.94L25.86 100.87L25.97 100.8L26.08 100.74L26.19 100.67L26.3 100.61L26.4 100.56L26.49 100.51L26.56 100.47L26.6 100.45L26.79 100.36L26.95 100.28L27.09 100.23L27.19 100.19L27.28 100.16L27.35 100.14L27.4 100.12L27.44 100.12L27.47 100.11L27.5 100.1L27.57 100.11L27.66 100.13L27.77 100.17L27.88 100.21L27.99 100.26L28.1 100.31L28.2 100.36L28.29 100.4L28.36 100.43L28.4 100.45L28.54 100.52L28.66 100.58L28.78 100.65L28.88 100.71L28.98 100.76L29.06 100.82L29.14 100.87L29.2 100.91L29.26 100.96L29.3 101L29.3 99.3L29.3 98.96L29.29 98.65L29.28 98.37L29.27 98.12L29.25 97.9L29.24 97.71L29.23 97.56L29.21 97.43L29.21 97.32L29.2 97.25L29.17 97.08L29.14 96.89L29.09 96.7L29.02 96.5L28.95 96.29L28.86 96.07L28.77 95.84L28.66 95.6L28.53 95.36L28.4 95.1L16.5 112.9L16.49 112.99ZM47.41 116.57L47.43 116.67L47.46 116.74L47.5 116.79L47.54 116.83L47.58 116.85L47.62 116.87L47.66 116.88L47.68 116.89L47.7 116.9L47.83 116.89L47.94 116.86L48.02 116.81L48.08 116.75L48.12 116.69L48.15 116.63L48.16 116.57L48.18 116.51L48.19 116.47L48.2 116.45L48.2 116.36L48.18 116.29L48.16 116.22L48.12 116.16L48.08 116.11L48.02 116.07L47.96 116.04L47.88 116.02L47.8 116L47.7 116L47.4 116.45L47.41 116.57ZM28.01 114.77L28.04 114.87L28.08 114.94L28.13 114.99L28.19 115.03L28.24 115.05L28.3 115.07L28.34 115.08L28.38 115.09L28.4 115.1L28.48 115.09L28.54 115.06L28.59 115.01L28.63 114.95L28.65 114.89L28.67 114.83L28.68 114.77L28.69 114.71L28.69 114.67L28.7 114.65L28.7 114.56L28.69 114.49L28.67 114.42L28.65 114.36L28.63 114.31L28.59 114.27L28.55 114.24L28.51 114.22L28.46 114.2L28.4 114.2L28 114.65L28.01 114.77ZM51.76 111.59L51.61 111.69L51.47 111.79L51.34 111.88L51.23 111.97L51.14 112.05L51.06 112.11L50.99 112.17L50.95 112.2L50.85 112.3L50.75 112.4L50.67 112.51L50.6 112.62L50.54 112.73L50.49 112.84L50.45 112.95L50.42 113.06L50.41 113.18L50.4 113.3L50.4 113.8L52.1 111.4L51.93 111.49L51.76 111.59ZM28.91 113.01L28.94 113.09L28.98 113.16L29.03 113.2L29.09 113.24L29.14 113.26L29.2 113.27L29.24 113.28L29.28 113.29L29.3 113.3L29.38 113.29L29.44 113.26L29.49 113.22L29.53 113.17L29.55 113.12L29.57 113.06L29.58 113L29.59 112.96L29.59 112.92L29.6 112.9L29.6 112.82L29.59 112.76L29.57 112.7L29.55 112.64L29.53 112.6L29.49 112.56L29.45 112.54L29.41 112.52L29.36 112.5L29.3 112.5L28.9 112.9L28.91 113.01ZM52.77 109.39L52.5 109.6L52.51 109.71L52.55 109.79L52.6 109.86L52.66 109.9L52.73 109.94L52.8 109.96L52.87 109.97L52.93 109.98L52.97 109.99L53 110L53.11 109.99L53.19 109.96L53.26 109.92L53.3 109.87L53.34 109.82L53.36 109.76L53.37 109.7L53.38 109.66L53.39 109.62L53.4 109.6L53.4 109.52L53.38 109.46L53.36 109.4L53.34 109.34L53.3 109.3L53.26 109.26L53.2 109.24L53.14 109.22L53.08 109.2L53 109.2L52.84 109.33L52.77 109.39ZM12.33 106L12.01 106.47L11.76 106.92L11.58 107.33L11.45 107.71L11.37 108.05L11.31 108.34L11.27 108.58L11.24 108.77L11.2 108.9L11.33 108.88L11.46 108.82L11.6 108.74L11.74 108.64L11.88 108.53L12.01 108.42L12.13 108.31L12.22 108.21L12.3 108.14L12.35 108.1L12.57 107.86L12.77 107.62L12.97 107.39L13.14 107.17L13.3 106.97L13.44 106.78L13.56 106.62L13.67 106.48L13.74 106.37L13.8 106.3L14 106.01L14.19 105.74L14.36 105.48L14.51 105.25L14.64 105.05L14.76 104.86L14.86 104.71L14.94 104.57L15 104.47L15.05 104.4L15.15 104.23L15.25 104.06L15.33 103.91L15.4 103.78L15.46 103.65L15.51 103.54L15.55 103.43L15.58 103.34L15.59 103.27L15.6 103.2L15.6 102.8L12.75 105.5L12.33 106ZM54.3 107.8L54.46 107.79L54.6 107.77L54.74 107.73L54.86 107.67L54.98 107.6L55.08 107.51L55.18 107.41L55.26 107.29L55.34 107.15L55.4 107L53.7 107.8L54.3 107.8ZM47.41 107.07L47.43 107.17L47.46 107.24L47.5 107.29L47.54 107.33L47.58 107.35L47.62 107.37L47.66 107.38L47.68 107.39L47.7 107.4L47.83 107.39L47.94 107.36L48.02 107.31L48.08 107.25L48.12 107.19L48.15 107.13L48.16 107.07L48.18 107.01L48.19 106.97L48.2 106.95L48.2 106.86L48.18 106.79L48.16 106.72L48.12 106.66L48.08 106.61L48.02 106.57L47.96 106.54L47.88 106.52L47.8 106.5L47.7 106.5L47.4 106.95L47.41 107.07ZM56.82 104.34L56.46 104.94L56.39 105.04L56.3 105.2L56.47 105.14L56.62 105.06L56.76 104.98L56.88 104.88L56.98 104.78L57.06 104.66L57.12 104.54L57.16 104.4L57.19 104.26L57.2 104.1L57.2 103.7L56.93 104.14L56.82 104.34ZM38.2 103.15L38.21 103.3L38.23 103.41L38.26 103.5L38.3 103.57L38.34 103.61L38.38 103.64L38.42 103.66L38.46 103.67L38.48 103.69L38.5 103.7L38.63 103.6L38.72 103.5L38.79 103.41L38.84 103.32L38.85 103.23L38.84 103.14L38.79 103.05L38.72 102.96L38.63 102.88L38.5 102.8L38.29 103.05L38.2 103.15ZM14.87 95.22L14.8 95.28L14.74 95.33L14.67 95.38L14.61 95.43L14.56 95.47L14.51 95.51L14.47 95.53L14.45 95.55L14.35 95.62L14.26 95.69L14.19 95.75L14.12 95.8L14.06 95.85L14.02 95.89L13.98 95.93L13.94 95.96L13.92 95.98L13.9 96L13.83 96.07L13.76 96.15L13.67 96.25L13.59 96.34L13.5 96.45L13.42 96.54L13.34 96.63L13.28 96.71L13.23 96.76L13.2 96.8L13.05 96.98L12.91 97.15L12.78 97.31L12.66 97.46L12.55 97.6L12.45 97.73L12.37 97.84L12.29 97.93L12.24 98L12.2 98.05L12.05 98.24L11.91 98.42L11.78 98.58L11.66 98.73L11.55 98.87L11.45 98.99L11.37 99.1L11.29 99.18L11.24 99.25L11.2 99.3L11.1 99.42L11.02 99.52L10.94 99.62L10.86 99.72L10.8 99.8L10.74 99.88L10.7 99.94L10.66 100L10.62 100.06L10.6 100.1L8.8 100.1L8.92 100.8L8.95 100.99L8.98 101.15L9.03 101.49L9.04 101.56L9.05 101.6L9.13 101.8L9.21 101.98L9.29 102.15L9.37 102.29L9.44 102.42L9.52 102.53L9.58 102.62L9.63 102.7L9.67 102.76L9.7 102.8L10.21 102.37L10.67 101.93L11.09 101.49L11.45 101.06L11.76 100.66L12.03 100.28L12.26 99.95L12.45 99.66L12.59 99.45L12.7 99.3L13.05 98.68L13.38 98.1L13.68 97.55L13.96 97.04L14.21 96.57L14.44 96.16L14.63 95.8L14.79 95.5L14.91 95.26L15 95.1L14.94 95.16L14.87 95.22ZM51.39 93.3L51.08 93.56L50.81 93.79L50.57 93.99L50.36 94.17L50.19 94.31L50.05 94.44L49.93 94.53L49.85 94.6L49.58 94.83L49.32 95.06L49.1 95.27L48.89 95.46L48.71 95.64L48.55 95.8L48.41 95.94L48.3 96.05L48.21 96.14L48.15 96.2L47.93 96.44L47.73 96.67L47.53 96.9L47.36 97.11L47.2 97.31L47.06 97.49L46.94 97.65L46.83 97.78L46.76 97.88L46.7 97.95L46.49 98.24L46.3 98.52L46.12 98.79L45.95 99.06L45.79 99.3L45.65 99.52L45.53 99.72L45.43 99.89L45.35 100.01L45.3 100.1L45.26 100.2L45.21 100.32L45.16 100.45L45.1 100.59L45.03 100.72L44.97 100.85L44.91 100.97L44.86 101.07L44.82 101.15L44.8 101.2L44.76 101.28L44.72 101.36L44.68 101.43L44.64 101.5L44.6 101.58L44.56 101.64L44.52 101.71L44.48 101.78L44.44 101.84L44.4 101.9L44.9 102.6L45.04 102.65L45.18 102.7L45.3 102.73L45.41 102.75L45.5 102.77L45.59 102.78L45.66 102.79L45.72 102.79L45.77 102.79L45.8 102.8L46.07 102.77L46.32 102.69L46.57 102.56L46.8 102.41L47.02 102.25L47.21 102.07L47.38 101.91L47.52 101.77L47.62 101.66L47.7 101.6L47.99 101.24L48.26 100.87L48.51 100.51L48.73 100.16L48.93 99.83L49.11 99.53L49.26 99.26L49.38 99.04L49.48 98.87L49.55 98.75L49.8 98.26L50.02 97.8L50.23 97.36L50.42 96.95L50.59 96.58L50.73 96.25L50.86 95.96L50.96 95.72L51.04 95.53L51.1 95.4L51.3 94.92L51.46 94.49L51.61 94.12L51.73 93.79L51.83 93.51L51.91 93.28L51.97 93.08L52.02 92.92L52.07 92.8L52.1 92.7L51.73 93.02L51.39 93.3ZM51.3 100.1L51.3 102.3L51.45 102.09L51.6 101.89L51.72 101.71L51.83 101.56L51.93 101.43L52.01 101.31L52.08 101.22L52.14 101.14L52.2 101.05L52.44 100.67L52.69 100.27L52.94 99.87L53.18 99.48L53.4 99.1L53.61 98.75L53.79 98.45L53.95 98.19L54.07 97.98L54.15 97.85L54.49 97.27L54.83 96.69L55.15 96.13L55.45 95.6L55.74 95.11L55.99 94.66L56.22 94.26L56.4 93.93L56.55 93.67L56.65 93.5L57.04 92.8L57.41 92.14L57.75 91.53L58.06 90.98L58.34 90.47L58.58 90.03L58.79 89.64L58.97 89.32L59.1 89.08L59.2 88.9L59.54 88.27L59.85 87.68L60.13 87.15L60.38 86.67L60.6 86.25L60.79 85.88L60.94 85.56L61.07 85.3L61.18 85.1L61.25 84.95L61.41 84.61L61.56 84.29L61.7 83.99L61.83 83.72L61.94 83.46L62.04 83.23L62.12 83.01L62.19 82.82L62.25 82.65L62.3 82.5L59.6 85L51.3 100.1ZM47.67 85.72L43.55 90.3L42.63 91.79L41.87 93.23L41.25 94.61L40.76 95.92L40.37 97.12L40.08 98.21L39.85 99.16L39.67 99.96L39.53 100.58L39.4 101L39.72 100.94L40.05 100.76L40.4 100.51L40.75 100.19L41.09 99.84L41.41 99.49L41.7 99.15L41.94 98.86L42.13 98.63L42.25 98.5L42.79 97.75L43.31 96.99L43.8 96.25L44.26 95.55L44.68 94.88L45.05 94.27L45.37 93.74L45.64 93.29L45.85 92.94L46 92.7L46.55 91.73L47.06 90.82L47.52 89.96L47.94 89.17L48.31 88.46L48.63 87.82L48.91 87.27L49.14 86.81L49.32 86.45L49.45 86.2L49.75 85.58L50.02 85L50.27 84.45L50.49 83.94L50.69 83.48L50.86 83.04L51.01 82.65L51.13 82.3L51.23 81.98L51.3 81.7L48.76 84.52L47.67 85.72ZM55.11 100.27L55.13 100.37L55.16 100.44L55.2 100.49L55.24 100.53L55.28 100.55L55.32 100.57L55.36 100.58L55.38 100.59L55.4 100.6L55.51 100.59L55.59 100.56L55.66 100.51L55.7 100.45L55.74 100.39L55.76 100.33L55.77 100.27L55.78 100.21L55.79 100.17L55.8 100.15L55.8 100.06L55.78 99.99L55.76 99.92L55.74 99.86L55.7 99.81L55.66 99.77L55.6 99.74L55.54 99.72L55.48 99.7L55.4 99.7L55.1 100.15L55.11 100.27ZM62.63 95.53L62.41 95.74L62.2 95.95L62.01 96.15L61.84 96.33L61.69 96.49L61.57 96.63L61.47 96.73L61.4 96.8L61.23 97L61.08 97.2L60.94 97.4L60.82 97.6L60.73 97.8L60.64 98L60.58 98.2L60.54 98.4L60.51 98.6L60.5 98.8L60.5 99.3L63.1 95.1L62.86 95.31L62.63 95.53ZM57.55 96.86L57.44 96.93L57.35 97.01L57.26 97.08L57.17 97.15L57.1 97.22L57.03 97.28L56.97 97.33L56.93 97.37L56.9 97.4L56.79 97.52L56.69 97.62L56.61 97.72L56.53 97.82L56.47 97.9L56.42 97.97L56.38 98.03L56.35 98.08L56.32 98.12L56.3 98.15L56.25 98.25L56.22 98.33L56.21 98.39L56.21 98.45L56.23 98.49L56.24 98.52L56.26 98.55L56.28 98.57L56.29 98.59L56.3 98.6L56.45 98.58L56.6 98.54L56.75 98.47L56.89 98.39L57.02 98.3L57.14 98.21L57.25 98.12L57.33 98.04L57.4 97.98L57.45 97.95L57.57 97.82L57.68 97.7L57.78 97.57L57.87 97.45L57.94 97.34L58 97.22L58.04 97.11L58.07 97.01L58.09 96.9L58.1 96.8L57.65 96.8L57.55 96.86ZM10.9 85.5L10.53 85.66L10.22 85.83L9.94 86.02L9.71 86.2L9.51 86.38L9.35 86.55L9.21 86.7L9.1 86.83L9.02 86.94L8.95 87L8.77 87.3L8.62 87.62L8.5 87.92L8.39 88.22L8.31 88.51L8.25 88.77L8.2 89L8.16 89.2L8.13 89.35L8.1 89.45L8.06 89.74L8.03 90.04L8 90.35L7.97 90.67L7.95 90.99L7.93 91.32L7.92 91.65L7.91 91.99L7.9 92.34L7.9 92.7L7.9 96.8L7.96 96.79L8.03 96.77L8.1 96.74L8.16 96.7L8.23 96.66L8.29 96.62L8.34 96.58L8.39 96.54L8.43 96.52L8.45 96.5L8.54 96.41L8.62 96.34L8.67 96.27L8.71 96.21L8.74 96.16L8.76 96.11L8.78 96.07L8.78 96.04L8.79 96.02L8.8 96L8.92 95.37L9.02 94.78L9.12 94.25L9.22 93.77L9.3 93.35L9.37 92.98L9.43 92.66L9.48 92.4L9.52 92.2L9.55 92.05L9.66 91.55L9.79 91.09L9.92 90.67L10.06 90.29L10.19 89.96L10.32 89.67L10.43 89.43L10.53 89.22L10.6 89.06L10.65 88.95L10.89 88.56L11.14 88.21L11.39 87.89L11.65 87.61L11.9 87.36L12.14 87.14L12.35 86.96L12.52 86.81L12.66 86.69L12.75 86.6L13.03 86.4L13.33 86.22L13.65 86.04L14 85.86L14.36 85.7L14.75 85.54L15.15 85.4L15.58 85.26L16.03 85.12L16.5 85L14.3 85L10.9 85.5ZM19.43 94.44L19.32 94.54L19.22 94.64L19.13 94.75L19.06 94.86L19 94.98L18.96 95.1L18.93 95.23L18.91 95.36L18.9 95.5L18.9 96L19.12 95.85L19.32 95.69L19.49 95.53L19.63 95.38L19.76 95.23L19.86 95.1L19.94 94.98L20.01 94.88L20.06 94.8L20.1 94.75L20.18 94.6L20.25 94.46L20.32 94.32L20.39 94.19L20.45 94.06L20.51 93.94L20.56 93.82L20.61 93.71L20.66 93.6L20.7 93.5L19.55 94.35L19.43 94.44ZM58.6 95.05L58.61 95.17L58.64 95.27L58.68 95.34L58.73 95.39L58.79 95.43L58.84 95.45L58.9 95.47L58.94 95.48L58.98 95.49L59 95.5L59.08 95.49L59.14 95.46L59.19 95.41L59.23 95.35L59.25 95.29L59.27 95.23L59.28 95.17L59.29 95.11L59.29 95.07L59.3 95.05L59.3 94.96L59.29 94.89L59.27 94.82L59.25 94.76L59.23 94.71L59.19 94.67L59.15 94.64L59.11 94.62L59.06 94.6L59 94.6L58.72 94.92L58.6 95.05ZM27.21 94.31L27.23 94.39L27.26 94.46L27.3 94.5L27.34 94.54L27.38 94.56L27.42 94.57L27.46 94.58L27.48 94.59L27.5 94.6L27.58 94.59L27.64 94.56L27.69 94.52L27.73 94.47L27.75 94.42L27.77 94.36L27.78 94.3L27.79 94.26L27.79 94.22L27.8 94.2L27.8 94.12L27.79 94.06L27.77 94L27.75 93.94L27.73 93.9L27.69 93.86L27.65 93.84L27.61 93.82L27.56 93.8L27.5 93.8L27.2 94.2L27.21 94.31ZM15.67 92.94L15.59 93.06L15.54 93.16L15.52 93.24L15.52 93.31L15.54 93.37L15.56 93.41L15.58 93.45L15.6 93.48L15.6 93.5L15.72 93.54L15.82 93.56L15.92 93.56L16.02 93.54L16.1 93.51L16.17 93.47L16.23 93.43L16.28 93.39L16.32 93.36L16.35 93.35L16.41 93.28L16.47 93.21L16.51 93.14L16.54 93.08L16.56 93.01L16.57 92.95L16.57 92.88L16.56 92.82L16.53 92.76L16.5 92.7L15.8 92.8L15.67 92.94ZM23.17 89.26L23.1 89.36L23.04 89.46L22.97 89.57L22.91 89.67L22.86 89.77L22.81 89.85L22.77 89.91L22.75 89.95L22.68 90.08L22.62 90.2L22.57 90.31L22.53 90.41L22.49 90.51L22.46 90.6L22.43 90.69L22.41 90.77L22.4 90.84L22.4 90.9L22.9 91.6L23.05 91.72L23.21 91.83L23.36 91.94L23.5 92.05L23.64 92.14L23.77 92.23L23.88 92.3L23.98 92.37L24.05 92.42L24.1 92.45L24.3 92.58L24.49 92.69L24.66 92.8L24.82 92.89L24.96 92.97L25.09 93.03L25.19 93.09L25.28 93.14L25.35 93.17L25.4 93.2L25.52 93.26L25.62 93.31L25.72 93.35L25.82 93.39L25.9 93.43L25.98 93.45L26.04 93.47L26.1 93.49L26.16 93.5L26.2 93.5L26.6 93.5L26.49 93.12L26.35 92.77L26.19 92.44L26.02 92.15L25.84 91.88L25.67 91.64L25.51 91.44L25.37 91.27L25.27 91.14L25.2 91.05L24.88 90.72L24.6 90.42L24.34 90.16L24.11 89.92L23.91 89.72L23.73 89.54L23.59 89.39L23.46 89.27L23.37 89.17L23.3 89.1L23.24 89.17L23.17 89.26ZM64.61 92.77L64.63 92.87L64.66 92.94L64.7 92.99L64.74 93.03L64.78 93.05L64.82 93.07L64.86 93.08L64.88 93.09L64.9 93.1L64.95 93.09L65 93.06L65.03 93.01L65.05 92.95L65.07 92.89L65.08 92.83L65.09 92.77L65.09 92.71L65.09 92.67L65.1 92.65L65.1 92.56L65.09 92.49L65.08 92.42L65.07 92.36L65.05 92.31L65.03 92.27L65 92.24L64.97 92.22L64.94 92.2L64.9 92.2L64.6 92.65L64.61 92.77ZM22 88.5L22.4 88.5L22.3 88.33L22.19 88.18L22.07 88.04L21.95 87.92L21.83 87.83L21.69 87.74L21.55 87.68L21.41 87.64L21.26 87.61L21.1 87.6L20.7 87.6L22 88.5ZM66.15 83.57L66.05 83.73L65.97 83.86L65.91 83.97L65.86 84.07L65.82 84.15L65.79 84.21L65.77 84.26L65.75 84.3L65.72 84.38L65.7 84.47L65.67 84.57L65.65 84.67L65.64 84.78L65.62 84.89L65.61 85.01L65.61 85.13L65.6 85.26L65.6 85.4L65.6 85.8L67.3 84.1L66.4 83.2L66.26 83.4L66.15 83.57ZM56.04 84.27L55.94 84.34L55.86 84.41L55.79 84.47L55.73 84.52L55.69 84.56L55.65 84.6L55.62 84.63L55.6 84.65L55.56 84.7L55.53 84.76L55.5 84.82L55.47 84.89L55.45 84.96L55.43 85.04L55.42 85.12L55.41 85.21L55.4 85.3L55.4 85.4L55.4 85.8L56.3 84.1L56.16 84.19L56.04 84.27ZM63.17 80.24L63.09 80.36L63.04 80.46L63.02 80.54L63.02 80.61L63.04 80.67L63.06 80.71L63.08 80.75L63.1 80.78L63.1 80.8L63.22 80.84L63.32 80.86L63.42 80.85L63.52 80.82L63.6 80.78L63.67 80.74L63.73 80.69L63.78 80.65L63.82 80.62L63.85 80.6L63.91 80.52L63.97 80.44L64.01 80.37L64.04 80.3L64.06 80.23L64.07 80.16L64.07 80.09L64.06 80.02L64.03 79.96L64 79.9L63.3 80.1L63.17 80.24ZM59 79L59.6 78.1L58.1 78.1L59 79Z" id="aeucxQ8Og"></path></defs><g visibility="inherit"><g visibility="inherit"><use xlink:href="#aeucxQ8Og" opacity="1" fill="#000000" fill-opacity="1"></use><g><use xlink:href="#aeucxQ8Og" opacity="1" fill-opacity="0" stroke="#000000" stroke-width="1" stroke-opacity="0"></use></g></g></g></svg>